<svg width="44" height="41" viewBox="0 0 44 41" fill="none" xmlns="http://www.w3.org/2000/svg">
<path d="M12.3804 40.4207C12.0123 40.4207 11.5828 40.3633 11.2147 40.191C10.2332 39.7889 9.61968 38.87 9.61968 37.8362V31.9205C4.46641 30.9441 0.662811 26.5791 0.662811 21.5824V11.1294C0.662811 5.32854 5.69338 0.561523 11.9509 0.561523H32.6253C38.8215 0.561523 43.9134 5.27111 43.9134 11.1294V21.6398C43.9134 27.4406 38.8829 32.2076 32.6253 32.2076H24.0979C23.7912 32.2076 23.4231 32.3225 23.1777 32.4948L14.1595 39.7889C13.6687 40.2484 13.0552 40.4207 12.3804 40.4207ZM11.9509 3.43322C7.41114 3.43322 3.73023 6.87926 3.73023 11.1294V21.6398C3.73023 25.4879 6.79765 28.7616 10.8466 29.2211C11.8896 29.3359 12.6871 30.1975 12.6871 31.1738V37.147L21.1532 30.2549C21.9507 29.6231 22.9936 29.2211 24.0366 29.2211H32.564C37.1038 29.2211 40.7847 25.775 40.7847 21.5249V11.1294C40.7847 6.87926 37.1038 3.43322 32.564 3.43322H11.9509V3.43322Z" fill="#65676B"/>
</svg>
