<svg width="44" height="41" viewBox="0 0 44 41" fill="none" xmlns="http://www.w3.org/2000/svg">
<path d="M43.3713 23.6699C43.3713 22.3431 42.7151 21.0716 41.7009 20.2423C42.4168 19.3578 42.7151 18.2521 42.5957 17.1465C42.3571 14.8246 40.0902 12.945 37.4653 12.945H29.71L30.1873 9.5174C30.3066 8.46702 30.3066 7.58249 30.068 6.69796C29.1731 3.10455 25.7131 0.561523 21.7161 0.561523C20.8213 0.561523 19.9265 0.893222 19.2702 1.50134C18.614 2.10945 18.2561 2.88342 18.2561 3.71267V8.24589C18.2561 10.2361 17.6595 12.1157 16.5261 13.8295L14.4381 16.9253C14.1398 17.3676 13.7222 17.6993 13.245 17.9204C12.8274 16.7042 11.6343 15.8197 10.2025 15.8197H3.34208C1.5524 15.8197 0.120651 17.1465 0.120651 18.805V37.4354C0.120651 39.0939 1.5524 40.4207 3.34208 40.4207H10.3218C12.1115 40.4207 13.5433 39.0939 13.5433 37.4354V36.9931C15.0943 38.2647 17.1226 39.0386 19.3299 39.0386H34.4825C35.8546 39.0386 37.2267 38.4858 38.1812 37.6013C39.1357 36.7167 39.6129 35.5558 39.5533 34.3396C39.5533 33.8973 39.4936 33.5103 39.3147 33.068C40.9254 32.2941 41.9992 30.7461 41.9992 28.9771C41.9992 28.369 41.8799 27.7609 41.6412 27.208C42.7151 26.2682 43.3713 24.9967 43.3713 23.6699ZM10.5008 37.3801C10.5008 37.4907 10.3815 37.6013 10.2622 37.6013H3.34208C3.22276 37.6013 3.10345 37.4907 3.10345 37.3801V18.7497C3.10345 18.6391 3.22276 18.5286 3.34208 18.5286H10.3218C10.4411 18.5286 10.5605 18.6391 10.5605 18.7497V37.3801H10.5008ZM39.255 25.3284C38.7778 25.5495 38.4198 25.9365 38.3005 26.4341C38.1812 26.9316 38.3005 27.4292 38.6584 27.8161C38.9567 28.1478 39.076 28.5348 39.076 28.9218C39.076 29.8063 38.3602 30.5803 37.4057 30.7461C36.8091 30.8567 36.2722 31.1884 36.0336 31.7412C35.795 32.2941 35.8546 32.8469 36.2125 33.3445C36.4512 33.6209 36.5705 34.0079 36.5705 34.3948C36.5705 34.8371 36.3915 35.3347 36.0336 35.6664C35.616 36.0533 35.0194 36.2745 34.4229 36.2745H19.2702C16.1085 36.2745 13.4836 33.8973 13.4836 30.912V20.7399C14.975 20.4082 16.2278 19.5789 17.063 18.3627L19.1509 15.2669C20.5827 13.1661 21.3582 10.7336 21.3582 8.24589V3.71267C21.3582 3.6021 21.4179 3.49153 21.4775 3.43625C21.5372 3.38097 21.6565 3.32568 21.7758 3.32568C24.4007 3.32568 26.6079 4.98418 27.2045 7.30607C27.3238 7.80362 27.3835 8.41174 27.2641 9.13042L26.7272 13.0002C26.6079 13.6636 26.8465 14.327 27.3238 14.8799C27.801 15.3774 28.5169 15.7091 29.2328 15.7091H37.4653C38.4795 15.7091 39.4936 16.4831 39.6129 17.3676C39.6726 18.031 39.3147 18.6944 38.7181 19.0814C38.1812 19.4131 37.8829 20.0212 37.9426 20.6293C38.0022 21.2374 38.4198 21.735 39.076 21.9561C39.8516 22.2325 40.3288 22.8959 40.3288 23.6699C40.3885 24.3886 39.9709 24.9967 39.255 25.3284Z" fill="#65676B"/>
</svg>
