<svg width="44" height="41" viewBox="0 0 44 41" fill="none" xmlns="http://www.w3.org/2000/svg">
<path d="M2.94537 40.4207C2.82752 40.4207 2.65075 40.4207 2.5329 40.3618C1.64903 40.185 1.05979 39.5368 0.941936 38.653C0.765163 37.4745 0.706238 36.296 0.706238 35.0586C0.706238 22.4487 10.0163 11.6655 22.4494 9.89779V3.12147C22.4494 2.11975 23.0386 1.17696 24.0404 0.764486C24.9831 0.352014 26.1027 0.587712 26.8098 1.29481L43.073 17.558C43.6622 18.1472 43.9569 18.8543 43.9569 19.6793C43.9569 20.5042 43.6622 21.2113 43.073 21.8005L26.7509 38.0637C26.0438 38.7708 24.9242 39.0065 23.9814 38.594C23.0386 38.1816 22.3905 37.2977 22.3905 36.2371V28.6947C15.0838 29.1661 8.48428 33.173 4.65418 39.419C4.30064 40.0672 3.65247 40.4207 2.94537 40.4207ZM25.3956 4.12319V10.1924C25.3956 11.4888 24.3939 12.6083 23.0976 12.7851C11.9608 14.2582 3.59354 23.8629 3.59354 35.0586C3.59354 35.2943 3.59354 35.53 3.59354 35.7657C8.13073 29.7554 15.0838 26.0431 22.6851 25.6896C23.3922 25.6306 24.0404 25.9253 24.5707 26.3967C25.101 26.8681 25.3956 27.5752 25.3956 28.2822V35.2943L40.9517 19.7382V19.6793L25.3956 4.12319Z" fill="#65676B"/>
</svg>
