<?xml version="1.0"?>
<svg xmlns="http://www.w3.org/2000/svg" height="512px" viewBox="-126 0 512 512" width="512px"><g><path d="m90 253.710938v77.289062c0 5.523438 4.476562 10 10 10s10-4.476562 10-10v-72.542969c6.601562 1.019531 13.289062 1.542969 20 1.542969s13.398438-.523438 20-1.542969v117.542969c0 5.523438 4.476562 10 10 10h40v20h-40c-5.523438 0-10 4.476562-10 10s4.476562 10 10 10h40v20h-40c-5.523438 0-10 4.476562-10 10v36h-40v-71c0-5.523438-4.476562-10-10-10s-10 4.476562-10 10v81c0 5.523438 4.476562 10 10 10h60c5.523438 0 10-4.476562 10-10v-36h40c5.523438 0 10-4.476562 10-10v-80c0-5.523438-4.476562-10-10-10h-40v-20h40c5.523438 0 10-4.476562 10-10s-4.476562-10-10-10h-40v-72.289062c53.367188-17.242188 90-67.039063 90-123.710938 0-71.683594-58.316406-130-130-130s-130 58.316406-130 130c0 56.667969 36.628906 106.464844 90 123.710938zm40-233.710938c60.652344 0 110 49.347656 110 110 0 60.734375-49.402344 110.527344-111 109.980469-60.757812-.542969-109-49.996094-109-109.980469 0-60.652344 49.347656-110 110-110zm0 0" data-original="#000000" class="active-path" data-old_color="#000000" fill="#1273EB"/><path d="m130 220c49.625 0 90-40.375 90-90s-40.375-90-90-90-90 40.375-90 90 40.375 90 90 90zm0-160c38.597656 0 70 31.402344 70 70s-31.402344 70-70 70-70-31.402344-70-70 31.402344-70 70-70zm0 0" data-original="#000000" class="active-path" data-old_color="#000000" fill="#1273EB"/><path d="m130 140h40c5.523438 0 10-4.476562 10-10s-4.476562-10-10-10h-30v-30c0-5.523438-4.476562-10-10-10s-10 4.476562-10 10v40c0 5.523438 4.476562 10 10 10zm0 0" data-original="#000000" class="active-path" data-old_color="#000000" fill="#1273EB"/><path d="m110 376c0 5.523438-4.476562 10-10 10s-10-4.476562-10-10 4.476562-10 10-10 10 4.476562 10 10zm0 0" data-original="#000000" class="active-path" data-old_color="#000000" fill="#1273EB"/></g> </svg>
