<svg width="18" height="18" viewBox="0 0 18 18" fill="none" xmlns="http://www.w3.org/2000/svg">
<path d="M17.8275 11.7524C17.6085 11.5327 17.2522 11.5327 17.0325 11.7524L15.3675 13.4174V5.73744C15.3675 4.18644 14.1052 2.92494 12.555 2.92494H8.16748C7.85698 2.92494 7.60498 3.17694 7.60498 3.48744C7.60498 3.79794 7.85698 4.04994 8.16748 4.04994H12.555C13.485 4.04994 14.2425 4.80744 14.2425 5.73744V13.4174L12.5775 11.7524C12.3577 11.5327 12.0015 11.5327 11.7825 11.7524C11.5635 11.9722 11.562 12.3284 11.7825 12.5474L14.4075 15.1724C14.5162 15.2827 14.6602 15.3374 14.805 15.3374C14.9497 15.3374 15.0922 15.2834 15.2025 15.1724L17.8275 12.5474C18.048 12.3284 18.048 11.9722 17.8275 11.7524ZM9.83248 14.2124H5.44498C4.51498 14.2124 3.75748 13.4549 3.75748 12.5249V4.84494L5.42248 6.50994C5.53348 6.62019 5.67748 6.67494 5.82148 6.67494C5.96548 6.67494 6.10948 6.62019 6.21898 6.50994C6.43873 6.29019 6.43873 5.93394 6.21898 5.71494L3.59398 3.08994C3.37423 2.86944 3.01798 2.86944 2.79898 3.08994L0.173981 5.71494C-0.0465191 5.93394 -0.0465191 6.29019 0.173981 6.50994C0.394481 6.72969 0.749231 6.72969 0.968981 6.50994L2.63398 4.84494V12.5249C2.63398 14.0759 3.89623 15.3374 5.44648 15.3374H9.83398C10.1445 15.3374 10.3965 15.0854 10.3965 14.7749C10.3965 14.4644 10.1437 14.2124 9.83398 14.2124H9.83248Z" fill="#5B7083"/>
</svg>
