<?xml version="1.0"?>
<svg xmlns="http://www.w3.org/2000/svg" id="Layer_5" enable-background="new 0 0 64 64" height="512px" viewBox="0 0 64 64" width="512px" class=""><g><g><g><path d="m42 46v-14h5v-21c0-1.103-.897-2-2-2h-26c-1.103 0-2 .897-2 2v3h19c1.105 0 2 .895 2 2v12c0 1.105-.895 2-2 2h-8v2.586c0 .781-.633 1.414-1.414 1.414-.375 0-.735-.149-1-.414l-3.586-3.586h-5v19c0 1.103.897 2 2 2h26c1.103 0 2-.897 2-2v-3z" fill="#f0bc5e" data-original="#F0BC5E" class="active-path" style="fill:#00AF80" data-old_color="#f0bc5e"/></g><g><path d="m31 5h6v2h-6z" data-original="#000000" class="" style="fill:#000000" data-old_color="#000000"/><path d="m27 5h2v2h-2z" data-original="#000000" class="" style="fill:#000000" data-old_color="#000000"/><path d="m21.586 53h-.586c-1.103 0-2 .897-2 2v2c0 1.103.897 2 2 2h.586c.526 0 1.042-.214 1.414-.586l2.414-2.414-2.414-2.414c-.372-.372-.888-.586-1.414-.586zm0 4h-.586v-2h.586l1 1z" data-original="#000000" class="" style="fill:#000000" data-old_color="#000000"/><path d="m33 53h-2c-1.103 0-2 .897-2 2v2c0 1.103.897 2 2 2h2c1.103 0 2-.897 2-2v-2c0-1.103-.897-2-2-2zm-2 4v-2h2l.002 2z" data-original="#000000" class="" style="fill:#000000" data-old_color="#000000"/><path d="m38.586 56 2.414 2.414c.372.372.888.586 1.414.586h.586c1.103 0 2-.897 2-2v-2c0-1.103-.897-2-2-2h-.586c-.526 0-1.042.214-1.414.586zm3.828-1h.586l.002 2h-.588l-1-1z" data-original="#000000" class="" style="fill:#000000" data-old_color="#000000"/><path d="m8 19h2c.552 0 1 .448 1 1h2c0-1.654-1.346-3-3-3h-2c-1.654 0-3 1.346-3 3s1.346 3 3 3h2c.552 0 1 .448 1 1s-.448 1-1 1h-2c-.552 0-1-.448-1-1h-2c0 1.654 1.346 3 3 3h2c1.654 0 3-1.346 3-3s-1.346-3-3-3h-2c-.552 0-1-.448-1-1s.448-1 1-1z" data-original="#000000" class="" style="fill:#000000" data-old_color="#000000"/><path d="m32 25h-2c-.552 0-1-.448-1-1h-2c0 1.654 1.346 3 3 3h2c1.654 0 3-1.346 3-3s-1.346-3-3-3h-2c-.552 0-1-.448-1-1s.448-1 1-1h2c.552 0 1 .448 1 1h2c0-1.654-1.346-3-3-3h-2c-1.654 0-3 1.346-3 3s1.346 3 3 3h2c.552 0 1 .448 1 1s-.448 1-1 1z" data-original="#000000" class="" style="fill:#000000" data-old_color="#000000"/><path d="m23 27h2v-10h-2.566l-2.434 4.057-2.434-4.057h-2.566v10h2v-7.057l3 5 3-5z" data-original="#000000" class="" style="fill:#000000" data-old_color="#000000"/><path d="m63 31h-12v-25c0-2.757-2.243-5-5-5h-28c-2.757 0-5 2.243-5 5v7h-9c-1.654 0-3 1.346-3 3v12c0 1.654 1.346 3 3 3h9v27c0 2.757 2.243 5 5 5h28c2.757 0 5-2.243 5-5v-11h12zm-9.917 7.588c-.598.531-1.568.53-2.166.001l-6.287-5.589h14.74zm-10.083-4.362 5.37 4.774-5.37 4.774zm6.901 6.088c.613.437 1.34.686 2.099.686s1.486-.249 2.099-.686l5.271 4.686h-14.74zm5.729-1.314 5.37-4.774v9.547zm-52.63-11v-12c0-.552.448-1 1-1h32c.552 0 1 .448 1 1v12c0 .552-.448 1-1 1h-9v3.586c0 .338-.468.532-.707.293l-3.879-3.879h-18.414c-.552 0-1-.448-1-1zm46 30c0 1.654-1.346 3-3 3h-28c-1.654 0-3-1.346-3-3v-27h6.586l3.293 3.293c.449.449 1.071.707 1.707.707 1.331 0 2.414-1.083 2.414-2.414v-1.586h7c1.654 0 3-1.346 3-3v-12c0-1.654-1.346-3-3-3h-21v-7c0-1.654 1.346-3 3-3h28c1.654 0 3 1.346 3 3v25h-8v16h8z" data-original="#000000" class="" style="fill:#000000" data-old_color="#000000"/><path d="m41 13h2v2h-2z" data-original="#000000" class="" style="fill:#000000" data-old_color="#000000"/><path d="m41 21h2v2h-2z" data-original="#000000" class="" style="fill:#000000" data-old_color="#000000"/><path d="m41 17h2v2h-2z" data-original="#000000" class="" style="fill:#000000" data-old_color="#000000"/><path d="m21 37h2v2h-2z" data-original="#000000" class="" style="fill:#000000" data-old_color="#000000"/><path d="m25 37h14v2h-14z" data-original="#000000" class="" style="fill:#000000" data-old_color="#000000"/><path d="m21 41h18v2h-18z" data-original="#000000" class="" style="fill:#000000" data-old_color="#000000"/><path d="m21 45h10v2h-10z" data-original="#000000" class="" style="fill:#000000" data-old_color="#000000"/><path d="m37 45h2v2h-2z" data-original="#000000" class="" style="fill:#000000" data-old_color="#000000"/><path d="m33 45h2v2h-2z" data-original="#000000" class="" style="fill:#000000" data-old_color="#000000"/><path d="m31 33h8v2h-8z" data-original="#000000" class="" style="fill:#000000" data-old_color="#000000"/></g></g></g> </svg>
