<?xml version="1.0"?>
<svg xmlns="http://www.w3.org/2000/svg" xmlns:xlink="http://www.w3.org/1999/xlink" version="1.1" id="Capa_1" x="0px" y="0px" viewBox="0 0 512 512" style="enable-background:new 0 0 512 512;" xml:space="preserve" width="512px" height="512px" class=""><g><g>
	<g>
		<g>
			<path d="M102.375,186.667c-2.938-5.115-9.458-6.844-14.563-3.906l-2.479,1.431v-2.858c0-5.896-4.771-10.667-10.667-10.667     c-5.896,0-10.667,4.771-10.667,10.667v2.858l-2.479-1.431c-5.083-2.906-11.625-1.188-14.563,3.906     c-2.958,5.104-1.208,11.625,3.896,14.573l2.473,1.427l-2.473,1.427c-5.104,2.948-6.854,9.469-3.896,14.573     c1.958,3.417,5.563,5.333,9.229,5.333c1.813,0,3.646-0.458,5.333-1.427L64,221.142V224c0,5.896,4.771,10.667,10.667,10.667     c5.896,0,10.667-4.771,10.667-10.667v-2.858l2.479,1.431C89.5,223.542,91.333,224,93.146,224c3.667,0,7.271-1.917,9.229-5.333     c2.958-5.104,1.208-11.625-3.896-14.573l-2.473-1.427l2.473-1.427C103.583,198.292,105.333,191.771,102.375,186.667z" data-original="#000000" class="active-path" data-old_color="#000000" fill="#1273EB"/>
			<path d="M187.708,186.667c-2.938-5.115-9.458-6.844-14.563-3.906l-2.479,1.431v-2.858c0-5.896-4.771-10.667-10.667-10.667     s-10.667,4.771-10.667,10.667v2.858l-2.479-1.431c-5.083-2.906-11.625-1.188-14.563,3.906     c-2.959,5.104-1.208,11.625,3.896,14.573l2.473,1.427l-2.473,1.427c-5.104,2.948-6.854,9.469-3.896,14.573     c1.958,3.417,5.563,5.333,9.229,5.333c1.813,0,3.646-0.458,5.333-1.427l2.479-1.431V224c0,5.896,4.771,10.667,10.667,10.667     s10.667-4.771,10.667-10.667v-2.858l2.479,1.431c1.688,0.969,3.521,1.427,5.333,1.427c3.667,0,7.271-1.917,9.229-5.333     c2.958-5.104,1.208-11.625-3.896-14.573l-2.473-1.427l2.473-1.427C188.917,198.292,190.667,191.771,187.708,186.667z" data-original="#000000" class="active-path" data-old_color="#000000" fill="#1273EB"/>
			<path d="M273.042,186.667c-2.938-5.115-9.5-6.844-14.563-3.906L256,184.191v-2.858c0-5.896-4.771-10.667-10.667-10.667     c-5.896,0-10.667,4.771-10.667,10.667v2.858l-2.479-1.431c-5.063-2.906-11.625-1.188-14.563,3.906     c-2.958,5.104-1.208,11.625,3.896,14.573l2.473,1.427l-2.473,1.427c-5.104,2.948-6.854,9.469-3.896,14.573     c1.958,3.417,5.563,5.333,9.229,5.333c1.813,0,3.646-0.458,5.333-1.427l2.479-1.431V224c0,5.896,4.771,10.667,10.667,10.667     c5.896,0,10.667-4.771,10.667-10.667v-2.858l2.479,1.431c1.688,0.969,3.521,1.427,5.333,1.427c3.667,0,7.271-1.917,9.229-5.333     c2.958-5.104,1.208-11.625-3.896-14.573l-2.473-1.427l2.473-1.427C274.25,198.292,276,191.771,273.042,186.667z" data-original="#000000" class="active-path" data-old_color="#000000" fill="#1273EB"/>
			<path d="M469.333,197.565v-48.232c0-23.531-19.146-42.667-42.667-42.667h-384C19.146,106.667,0,125.802,0,149.333V256     c0,23.531,19.146,42.667,42.667,42.667h235.207c5.415,59.711,55.706,106.667,116.793,106.667     C459.354,405.333,512,352.698,512,288C512,251.646,495.374,219.103,469.333,197.565z M42.667,277.333     c-11.771,0-21.333-9.573-21.333-21.333V149.333c0-11.76,9.563-21.333,21.333-21.333h384c11.771,0,21.333,9.573,21.333,21.333     v34.288c-16.023-8.223-34.121-12.954-53.333-12.954s-37.31,4.732-53.333,12.954v-2.288c0-5.896-4.771-10.667-10.667-10.667     c-5.896,0-10.667,4.771-10.667,10.667v2.858l-2.479-1.431c-5.104-2.906-11.646-1.188-14.563,3.906     c-2.958,5.104-1.208,11.625,3.896,14.573l2.473,1.427l-2.473,1.427c-4.305,2.487-6.025,7.482-4.745,12.059     c-13.409,17.234-22.155,38.237-24.236,61.181H42.667z M394.667,384c-52.938,0-96-43.063-96-96s43.063-96,96-96s96,43.063,96,96     S447.604,384,394.667,384z" data-original="#000000" class="active-path" data-old_color="#000000" fill="#1273EB"/>
			<path d="M440.458,248.458l-67.125,67.125l-24.458-24.458c-4.167-4.167-10.917-4.167-15.083,0c-4.167,4.167-4.167,10.917,0,15.083     l32,32c2.083,2.083,4.813,3.125,7.542,3.125c2.729,0,5.458-1.042,7.542-3.125l74.667-74.667c4.167-4.167,4.167-10.917,0-15.083     C451.375,244.292,444.625,244.292,440.458,248.458z" data-original="#000000" class="active-path" data-old_color="#000000" fill="#1273EB"/>
		</g>
	</g>
</g></g> </svg>
