<svg width="18" height="18" viewBox="0 0 18 18" fill="none" xmlns="http://www.w3.org/2000/svg">
<path d="M10.5345 1.68157L7.42352 1.67407H7.42202C4.14152 1.67407 1.57202 4.24432 1.57202 7.52557C1.57202 10.5991 3.96152 12.9301 7.17077 13.0531V15.9241C7.17077 16.0051 7.20377 16.1386 7.26077 16.2263C7.36727 16.3951 7.54877 16.4866 7.73477 16.4866C7.83827 16.4866 7.94252 16.4581 8.03627 16.3981C8.23427 16.2721 12.891 13.2931 14.1023 12.2686C15.5288 11.0611 16.3823 9.29107 16.3845 7.53457V7.52182C16.38 4.24657 13.812 1.68157 10.5345 1.68082V1.68157ZM13.3748 11.4106C12.5243 12.1306 9.72827 13.9643 8.29577 14.8928V12.5026C8.29577 12.1921 8.04452 11.9401 7.73327 11.9401H7.43627C4.69127 11.9401 2.69777 10.0831 2.69777 7.52557C2.69777 4.87507 4.77377 2.79907 7.42277 2.79907L10.533 2.80657H10.5345C13.1835 2.80657 15.2595 4.88107 15.261 7.52857C15.2588 8.96107 14.5545 10.4116 13.3755 11.4106H13.3748Z" fill="#5B7083"/>
</svg>
