<svg xmlns="http://www.w3.org/2000/svg" width="256" height="256"><path fill-opacity=".016" d="M0 128.004v128.004l128.25-.254 128.25-.254.254-127.75L257.008 0H0v128.004m.485.496c0 70.4.119 99.053.265 63.672.146-35.38.146-92.98 0-128C.604 29.153.485 58.1.485 128.5" fill="#1976D2" fill-rule="evenodd"/><path fill-opacity=".283" d="M121 5.5c0 .825-.675 1.5-1.5 1.5-2.207 0-1.797 2.186.887 4.73 2.298 2.178 2.403 2.187 4.483.383 2.58-2.238 2.662-3.468.408-6.102C123.249 3.642 121 3.373 121 5.5M88.655 6.829C87.745 7.835 87 9.602 87 10.757 87 14.473 89.641 16 96.071 16H102l-.023 11.25-.023 11.25-7.12 4C81.308 50.099 69.29 64.632 63.823 80c-2.009 5.649-2.313 8.397-2.317 21-.006 13.241.227 15.137 2.673 21.835 1.474 4.034 4.174 9.869 6 12.966 4.282 7.262 15.802 18.763 23.113 23.076 21.513 12.691 47.903 12.691 69.416 0 7.684-4.533 18.932-15.932 23.574-23.892 6.509-11.16 8.22-18.358 8.202-34.485-.015-12.034-.34-14.913-2.318-20.5-5.492-15.512-17.379-29.909-30.962-37.5l-7.158-4-.023-11.25L154 16h5.929c6.515 0 9.071-1.526 9.071-5.416C169 6.188 166.197 5 155.826 5 142.467 5 143 4.071 143 27.36c0 16.934.165 18.755 1.75 19.257.963.305 5.096 2.195 9.185 4.2 14.801 7.256 26.054 21.982 29.561 38.683 1.853 8.826 1.853 14.174 0 23-4.627 22.038-21.958 39.369-43.996 43.996-12.979 2.725-24.752 1.112-37.426-5.125-18.029-8.872-31.039-29.986-31.039-50.371 0-20.265 13.037-41.361 31.007-50.172 4.102-2.011 8.245-3.906 9.208-4.211 1.585-.502 1.75-2.331 1.75-19.431C113 4.006 113.59 5 99.826 5c-7.949 0-9.789.301-11.171 1.829m40.012 16.838c-.367.366-.667 1.491-.667 2.5 0 1.166-.727 1.833-2 1.833-1.467 0-2 .667-2 2.5 0 1.803.538 2.5 1.93 2.5 1.241 0 2.045.804 2.25 2.25.229 1.611 1.101 2.34 3.07 2.566 2.368.273 2.75-.04 2.75-2.25 0-2.07.483-2.566 2.5-2.566 2 0 2.5-.5 2.5-2.5s-.5-2.5-2.5-2.5-2.5-.5-2.5-2.5c0-1.952-.511-2.5-2.333-2.5-1.284 0-2.634.3-3 .667m-8.917 26.226c-2.146 2.176-2.264 4.107-.25 4.107.825 0 1.5.675 1.5 1.5 0 2.127 2.249 1.858 4.278-.511 2.096-2.448 2.161-3.693.293-5.56-1.866-1.867-3.663-1.724-5.821.464M98 64.434C98 66.523 97.522 67 95.43 67c-2.092 0-2.51.418-2.25 2.25.206 1.446 1.124 2.364 2.57 2.57 1.647.233 2.25.988 2.25 2.816 0 2.134.4 2.451 2.75 2.18 1.969-.226 2.841-.955 3.07-2.566.205-1.446 1.009-2.25 2.25-2.25 1.392 0 1.93-.697 1.93-2.5s-.538-2.5-1.93-2.5c-1.241 0-2.045-.804-2.25-2.25-.229-1.611-1.101-2.34-3.07-2.566-2.368-.273-2.75.04-2.75 2.25m17.696.203c-.383.383-.703 5.009-.711 10.28-.009 5.271-.374 10.148-.813 10.839-.614.967-2.28.65-7.235-1.377-8.165-3.34-15.739-3.644-19.657-.788-12.478 9.095-8.361 36.489 7.801 51.905 28.053 26.757 73.887 10.87 80.404-27.87l.652-3.874-3.818.677c-2.101.373-4.589.903-5.529 1.179-1.508.442-1.745-.541-2-8.303l-.29-8.805-10.671-.5c-5.87-.275-11.045-.873-11.5-1.329-.456-.455-1.054-5.63-1.329-11.5l-.5-10.671-12.054-.279c-6.63-.154-12.367.034-12.75.416m38.013.987c-.39.39-.709 1.534-.709 2.543 0 1.166-.727 1.833-2 1.833-1.556 0-2 .667-2 3s.444 3 2 3c1.333 0 2 .667 2 2 0 1.556.667 2 3 2 2.297 0 3-.452 3-1.93 0-1.241.804-2.045 2.25-2.25 3.153-.448 3.205-5.184.061-5.631-1.363-.195-2.305-1.137-2.5-2.5-.308-2.164-3.65-3.517-5.102-2.065M.667 189.667c-.367.366-.667 8.016-.667 17V223h7l.034-10.25.035-10.25 4.215 8c3.839 7.285 4.484 8 7.216 8s3.377-.715 7.216-8l4.215-8 .035 10.25L30 223h7v-34l-3.25.015c-1.788.009-3.756.346-4.375.75-.619.404-3.331 5.138-6.027 10.52l-4.902 9.785-4.473-9.189c-2.46-5.054-5.068-9.795-5.794-10.535-1.371-1.396-6.345-1.846-7.512-.679m46.032-.033c-.384.385-.699 8.049-.699 17.033V223h22v-7H55v-7h5c4.889 0 5-.067 5-3s-.111-3-5-3h-5v-7H68.127l-.314-3.25-.313-3.25-10.051-.283c-5.527-.155-10.365.032-10.75.417M76 206.119v17.12l9.287-.407c7.568-.331 9.997-.844 13.118-2.773 6.495-4.014 9.291-13.16 6.218-20.341-3.177-7.426-9.868-10.703-21.873-10.712L76 189v17.119m38-.119v17h8v-34h-8v17m25.401-15.095c-6.376 2.896-8.901 7.228-8.901 15.272 0 7.455 1.597 10.563 7.49 14.573 4.014 2.732 10.663 2.983 15.701.592 4.206-1.995 5.143-3.937 2.956-6.124-1.379-1.378-2.136-1.443-4.958-.422-4.953 1.791-7.505 1.479-10.234-1.251-1.928-1.927-2.455-3.49-2.455-7.277 0-2.709.67-5.78 1.529-7.006 2.071-2.956 7.416-3.859 11.216-1.894 2.829 1.463 3.102 1.424 5.121-.726 1.174-1.249 2.134-2.601 2.134-3.005 0-1.355-8.461-4.593-12-4.593-1.925 0-5.345.838-7.599 1.861m26.064-.674c-.286.744-.395 8.309-.242 16.811l.277 15.458 10.25.285 10.25.285V216h-11.942l-.279-13.25-.279-13.25-3.758-.311c-2.47-.204-3.936.153-4.277 1.042m37.751.008C201.809 191.935 191 219.663 191 221.577c0 1.812 6.319 1.948 7.797.167.573-.69 1.352-2.49 1.731-4 .651-2.593 1.004-2.744 6.429-2.744h5.74l1.571 4c1.481 3.771 1.808 4 5.719 4 3.501 0 4.059-.273 3.577-1.75-.314-.963-3.183-8.5-6.377-16.75l-5.806-15-3.526-.301c-2.064-.175-3.988.256-4.639 1.04m27.451-.572c-.367.366-.667 8.016-.667 17V223h8.032c8.903 0 13.835-1.545 16.337-5.117 2.477-3.536 2.097-8.372-.84-10.682-2.45-1.926-2.454-1.959-.5-3.727 2.472-2.238 2.584-7.496.221-10.413-.963-1.188-3.55-2.577-5.75-3.086-4.65-1.078-15.859-1.283-16.833-.308M84 205.87V216h4.045c5.919 0 8.955-3.338 8.955-9.844 0-6.638-2.142-9.192-8.289-9.885L84 195.74v10.13m155-6.307c0 3.397.147 3.549 3.149 3.25 6.286-.625 6.04-6.813-.271-6.813-2.632 0-2.878.304-2.878 3.563m-32.964 1.842c-.561 1.476-1.297 3.788-1.636 5.139-.568 2.262-.337 2.456 2.931 2.456h3.548l-1.585-4.75c-2.01-6.028-2.038-6.053-3.258-2.845M239 212.56c0 3.487.076 3.554 3.649 3.25 7.035-.598 6.787-6.81-.271-6.81-3.205 0-3.378.183-3.378 3.56M28 245.5c0 5.392.056 5.5 2.878 5.5 3.575 0 4.978-1.621 4.756-5.5-.241-4.237-1.319-5.5-4.693-5.5-2.898 0-2.941.08-2.941 5.5m14-1.283c0 4.822 1.301 6.783 4.5 6.783s4.5-1.961 4.5-6.783c0-5.449-2.26-5.34-3 .144-.275 2.038-.95 3.705-1.5 3.705s-1.225-1.667-1.5-3.705c-.74-5.484-3-5.593-3-.144m16.238-3.055c-1.798 1.798-1.521 3.644.762 5.07 2.626 1.64 2.554 2.726-.134 2.023-1.537-.402-2.003-.166-1.667.843.67 2.01 4.882 1.73 6.192-.411.903-1.476.671-2.172-1.252-3.75L59.778 243h2.195c1.308 0 2.027-.505 1.782-1.25-.568-1.724-4.013-2.092-5.517-.588M70 245.5c0 4.222.348 5.5 1.5 5.5 1.152 0 1.5-1.278 1.5-5.5 0-4.222-.348-5.5-1.5-5.5-1.152 0-1.5 1.278-1.5 5.5m9.553-4.586c-.31.503-.391 2.847-.178 5.21.465 5.155 2.625 6.573 2.625 1.723v-3.319l2.25 3.219c3.406 4.873 4.912 4.238 4.552-1.918-.323-5.534-2.773-8.263-2.838-3.162l-.036 2.833-2.252-2.75c-2.399-2.93-3.22-3.296-4.123-1.836M95 245.5v5.5h3.583c2.436 0 3.442-.401 3.143-1.25-.243-.687-1.18-1.187-2.084-1.111-.903.076-1.642-.261-1.642-.75s.675-.889 1.5-.889c2.092 0 1.884-2.753-.25-3.311-1.317-.344-1.193-.486.5-.573 3.899-.201 2.73-3.116-1.25-3.116H95v5.5m14.2-4.3c-1.762 1.762-1.467 3.616.8 5.032 2.626 1.64 2.554 2.726-.134 2.023-1.537-.402-2.003-.166-1.667.843.67 2.01 4.882 1.73 6.192-.411.898-1.468.686-2.159-1.116-3.64l-2.225-1.827 2.225-.61c1.859-.51 1.978-.772.725-1.595-2.002-1.314-3.353-1.262-4.8.185m11.87.67c-.819 1.53-.703 2.354.503 3.561.864.863 2.014 1.569 2.557 1.569.544 0 .736.408.428.906-.308.498-1.46.671-2.559.383-1.102-.288-1.999-.03-1.999.575 0 1.329 4.465 2.585 5.943 1.671 1.917-1.185 1.163-5.178-1.193-6.315l-2.25-1.085 2.333-.067c2.877-.084 2.391-2.438-.594-2.879-1.3-.192-2.511.45-3.169 1.681m19.468-.931c-.319.516.068 1.303.861 1.75.793.446 1.59 2.351 1.771 4.234.491 5.092 2.83 5.225 2.83.16 0-2.963.412-4.083 1.5-4.083.825 0 1.5-.675 1.5-1.5 0-1.08-1.105-1.5-3.941-1.5-2.168 0-4.202.422-4.521.939m15.068 2.223c-3.217 7.86-3.069 9.472.565 6.183 1.705-1.543 1.965-1.532 3.835.161 2.913 2.635 3.299 1.412 1.276-4.038-2.214-5.963-3.9-6.647-5.676-2.306m14.02-1.645c-3.613 3.612-.75 9.867 4.25 9.287 2.026-.235 2.696-.931 2.94-3.054.255-2.215-.085-2.75-1.75-2.75-1.136 0-2.066.45-2.066 1s.54 1 1.2 1c.881 0 .904.296.087 1.113-1.582 1.582-3.287.196-3.287-2.672 0-2.06.481-2.441 3.083-2.441 2.019 0 2.942-.432 2.673-1.25-.627-1.91-5.301-2.063-7.13-.233m13.776-.122c-.294.767-.393 3.129-.219 5.25.293 3.569.566 3.879 3.674 4.176 2.444.234 3.231-.038 2.892-1-.255-.726-1.203-1.258-2.107-1.182-1.294.109-1.642-.79-1.642-4.25 0-4.21-1.478-5.913-2.598-2.994M196 245.417c0 4.38.335 5.583 1.552 5.583 1.242 0 1.492-1.034 1.25-5.171-.433-7.407-2.802-7.756-2.802-.412m9.402-4.022c-.294.767-.393 3.095-.219 5.173.378 4.51 2.799 6.008 2.853 1.765l.036-2.833 2.434 2.979c3.098 3.791 4.743 2.449 4.308-3.515-.38-5.21-2.814-6.776-2.814-1.811v3.319l-2.25-3.219c-2.466-3.528-3.533-3.983-4.348-1.858M221 245.5v5.5h3.583c2.436 0 3.442-.401 3.143-1.25-.243-.687-1.18-1.187-2.084-1.111-.903.076-1.642-.261-1.642-.75s.675-.889 1.5-.889c2.092 0 1.884-2.753-.25-3.311-1.317-.344-1.193-.486.5-.573 3.899-.201 2.73-3.116-1.25-3.116H221v5.5M31 243c0 .55.477 1 1.059 1s.781-.45.441-1-.816-1-1.059-1-.441.45-.441 1m0 5.059c0 .582.45.781 1 .441s1-.816 1-1.059-.45-.441-1-.441-1 .477-1 1.059" fill="#1976D2" fill-rule="evenodd"/><path fill-opacity=".227" d="M120.75 7.083c-1.67 1.83-1.659 2.008.25 3.917 2.392 2.392 3 2.494 3 .5 0-.825.675-1.5 1.5-1.5 1.994 0 1.892-.608-.5-3-2.339-2.339-2.033-2.345-4.25.083M88.2 7.2c-1.581 1.581-1.532 5.279.088 6.624.709.588 4.196 1.206 7.75 1.373l6.462.303.266 11.5.266 11.5-6.751 3.5c-4.366 2.264-9.615 6.325-14.864 11.5-13.119 12.936-19.161 26.166-20.092 44-.663 12.696 1.177 21.749 6.782 33.366 5.399 11.189 17.614 23.776 28.593 29.461 19.721 10.214 42.879 10.214 62.6 0 10.82-5.603 23.132-18.242 28.568-29.327 9.533-19.44 9.542-40.176.027-59.834-5.33-11.013-17.728-23.868-28.166-29.204l-6.77-3.462.27-11.5.271-11.5 6.462-.303c7.093-.333 9.038-1.327 9.038-4.619C169 6.628 167.195 6 155.835 6c-9.619 0-10.875.206-11.8 1.934C143.432 9.061 143 17.35 143 27.795v17.927l5.413 2.072C179.891 59.84 193.797 96.065 178.819 127c-4.279 8.839-15.988 20.545-24.819 24.814-23.341 11.284-48.092 7.266-66.086-10.728-14.538-14.538-19.997-33.381-15.365-53.033 4.243-17.999 17.851-33.682 34.882-40.199L113 45.722V27.795c0-10.445-.432-18.734-1.035-19.861C111.04 6.206 109.784 6 100.165 6c-7.039 0-11.18.415-11.965 1.2M129 25.93c0 1.241-.804 2.045-2.25 2.25-1.477.21-2.25 1.007-2.25 2.32s.773 2.11 2.25 2.32c1.446.205 2.25 1.009 2.25 2.25 0 1.061.675 1.93 1.5 1.93s1.838-.005 2.25-.011c.412-.006.75-.794.75-1.75 0-1.042.902-1.867 2.25-2.059 1.608-.228 2.25-.993 2.25-2.68 0-1.687-.642-2.452-2.25-2.681-1.425-.203-2.199-.962-2.111-2.069.096-1.217-.589-1.75-2.25-1.75-1.694 0-2.389.562-2.389 1.93m-8.25 24.153c-1.67 1.83-1.659 2.008.25 3.917l2 2 2-2c2.392-2.392 2.494-3 .5-3-.825 0-1.5-.675-1.5-1.5 0-1.972-1.096-1.775-3.25.583M98.805 64.358c-.19 1.339-1.149 2.262-2.555 2.462-3.103.44-3.246 5.18-.156 5.18 1.252 0 2.303.803 2.616 2 .685 2.62 4.29 2.679 4.29.07 0-1.241.804-2.045 2.25-2.25 1.446-.206 2.364-1.124 2.57-2.57.26-1.832-.158-2.25-2.25-2.25-1.85 0-2.57-.528-2.57-1.883 0-2.797-3.806-3.485-4.195-.759m17.395.842c-.769.769-1.2 4.698-1.2 10.941 0 5.424-.444 10.015-1.001 10.36-.551.34-4.476-.58-8.723-2.046-16.302-5.627-24.525.093-24.431 16.995.09 16.111 8.374 31.023 22.056 39.704 14.418 9.148 35.654 9.115 49.979-.077 6.058-3.887 14.244-12.437 16.899-17.65 2.4-4.712 5.221-13.918 5.221-17.039 0-2.06-.271-2.171-3.243-1.318-6.604 1.894-6.757 1.738-6.757-6.87 0-4.733-.472-8.272-1.2-9-.767-.767-4.667-1.2-10.8-1.2-6.133 0-10.033-.433-10.8-1.2-.767-.767-1.2-4.667-1.2-10.8 0-6.133-.433-10.033-1.2-10.8-1.646-1.646-21.954-1.646-23.6 0m37.62 3.05c-.206 1.446-1.124 2.364-2.57 2.57-3.295.468-3.073 4.18.25 4.18 2 0 2.5.5 2.5 2.5 0 3.323 3.712 3.545 4.18.25.206-1.446 1.124-2.364 2.57-2.57 1.413-.2 2.25-1.012 2.25-2.18 0-1.168-.837-1.98-2.25-2.18-1.446-.206-2.364-1.124-2.57-2.57-.2-1.413-1.012-2.25-2.18-2.25-1.168 0-1.98.837-2.18 2.25m-12.036 121.914c-5.321 1.459-10.46 7.49-11.331 13.3-1.352 9.015 4.27 17.482 12.638 19.033 4.397.815 11.01-.846 13.258-3.33 1.563-1.727 1.538-1.959-.397-3.71-1.7-1.539-2.404-1.656-3.994-.663-3.355 2.095-8.36 1.472-11.034-1.375-1.899-2.021-2.424-3.664-2.424-7.586 0-4.245.426-5.373 2.806-7.42 3.082-2.651 7.129-3.083 11.256-1.203 2.3 1.048 2.846.953 4.061-.709 1.776-2.428 1.359-3.697-1.697-5.171-3.762-1.815-9.061-2.285-13.142-1.166M0 205.943V222h6.928l.286-9.75.286-9.75 4.261 8.25c3.599 6.967 4.647 8.25 6.739 8.25 2.092 0 3.14-1.283 6.739-8.25l4.261-8.25.286 9.75.286 9.75H37v-32h-7.982l-5.11 10.183-5.11 10.183-4.353-8.433c-2.395-4.638-4.758-9.108-5.251-9.933-.507-.847-2.702-1.634-5.046-1.807L0 189.885v16.058M46 206v16H68.133l-.317-2.75c-.306-2.663-.53-2.759-7.066-3.046l-6.75-.295V209h5c4.889 0 5-.067 5-3s-.111-3-5-3h-5V196.091l6.75-.295c6.536-.287 6.76-.383 7.066-3.046l.317-2.75H46v16m30-.094V222h9.352c8.047 0 9.819-.315 12.696-2.253 9.525-6.419 9.847-20.266.632-27.142-2.327-1.736-4.56-2.165-12.75-2.449l-9.93-.343v16.093m38 .094v16h8v-32h-8v16m52 0v16h19v-3c0-2.97-.056-3-5.5-3H174v-26h-8v16m36.326-14.308c-.361.994-3.057 8.03-5.991 15.635-2.934 7.604-5.335 14.017-5.335 14.25 0 .232 1.765.423 3.922.423 3.597 0 4.019-.291 5.078-3.5 1.147-3.475 1.198-3.5 7.064-3.5 5.808 0 5.934.06 7.372 3.5 1.282 3.068 1.9 3.5 5.013 3.5 1.953 0 3.547-.338 3.542-.75-.005-.412-2.619-7.5-5.81-15.75l-5.801-15-4.199-.308c-3.316-.243-4.337.072-4.855 1.5M230 206v16h9.05c5.957 0 10.009-.496 11.859-1.453 5.295-2.738 6.565-11.153 2.048-13.57l-2.02-1.081 2.031-2.583c2.269-2.883 2.597-6.995.75-9.4-2.326-3.029-5.635-3.913-14.652-3.913H230v16m-146 0v10h4.326c6.174 0 9.059-3.234 9.059-10.155 0-4.342-.417-5.476-2.748-7.481-1.885-1.621-3.988-2.364-6.693-2.364H84v10m154-6.5v3.615l4.25-.308c3.987-.288 4.25-.492 4.25-3.307s-.263-3.019-4.25-3.307l-4.25-.308v3.615m-31.368-.5c-.971 2.435-3.632 10.219-3.632 10.626 0 .206 1.8.374 4 .374 4.558 0 4.64-.301 2.037-7.5-1.162-3.214-2.021-4.464-2.405-3.5M238 212.279c0 1.863.219 3.606.486 3.873.267.268 2.404.23 4.75-.083 3.945-.526 4.264-.794 4.264-3.569 0-2.87-.207-3.013-4.75-3.305l-4.75-.305v3.389M58.543 241.345c-2.047 1.497-1.144 4.264 1.627 4.989 1.162.304 1.738 1.006 1.346 1.639-.376.61-1.546.835-2.6.5-2.288-.726-2.606 1.048-.344 1.916 2.051.787 5.428-1.046 5.428-2.946 0-.817-1.111-1.992-2.469-2.611-2.525-1.15-2.461-3.403.07-2.432.77.296 1.399.149 1.399-.324 0-1.525-2.755-1.976-4.457-.731m51.147-.191c-2.441 1.366-2.076 3.713.779 5.014 2.818 1.284 2.352 3.227-.553 2.305-2.243-.712-2.629 1.04-.416 1.889 1.939.744 4.201-.142 4.88-1.91.559-1.456-1.803-4.452-3.51-4.452-.544 0-.691-.481-.328-1.068.363-.588 1.29-.827 2.059-.532.77.296 1.399.149 1.399-.324 0-1.406-2.493-1.939-4.31-.922m12.51.046c-1.768 1.768-1.464 3.588.8 4.8 1.1.589 2 1.557 2 2.152 0 .595-.9.846-2 .558-2.388-.624-2.702.807-.373 1.7 1.861.714 4.373-1.008 4.373-2.997 0-.739-.9-1.824-2-2.413-1.1-.589-2-1.535-2-2.103 0-.577.882-.752 2-.397 2.352.746 2.738-1.003.418-1.893-2.014-.773-1.816-.809-3.218.593m48.042.343c-3.006 2.105-2.905 5.977.209 8.017 3.266 2.14 6.549 1.073 6.549-2.127 0-1.452-.581-2.433-1.441-2.433-1.918 0-2.905 1.71-1.315 2.278.691.246.938.79.549 1.209-.389.418-1.411.49-2.273.159-4.122-1.582-2.142-7.27 2.156-6.191 1.293.324 2.324.131 2.324-.436 0-.56-.413-1.019-.918-1.019-.505 0-1.521-.231-2.258-.514-.736-.283-2.348.193-3.582 1.057M28 245.531c0 5.119 1.583 6.436 5.558 4.625 2.013-.918 2.357-1.67 2.004-4.382a197.003 197.003 0 01-.495-4.024c-.037-.412-1.642-.75-3.567-.75-3.485 0-3.5.019-3.5 4.531m14-1.186c0 3.213 2.418 6.655 4.674 6.655 1.981 0 4.326-3.702 4.326-6.829 0-1.744-.45-3.171-1-3.171s-1 1.088-1 2.418c0 3.38-.986 5.582-2.5 5.582s-2.5-2.202-2.5-5.582c0-1.33-.45-2.418-1-2.418s-1 1.505-1 3.345m29 1.714c0 3.118.384 4.822 1 4.441.55-.34 1-2.616 1-5.059S72.55 241 72 241s-1 2.277-1 5.059m9 0c0 3.118.384 4.822 1 4.441.55-.34 1-1.812 1-3.271v-2.653l2.959 3.462 2.96 3.462.04-5.25c.025-3.223-.39-5.25-1.076-5.25-.651 0-.917 1.041-.638 2.5.263 1.375.142 2.5-.269 2.5-.41 0-1.483-1.125-2.384-2.5C81.1 239.697 80 240.48 80 246.059m15.195-.309c.265 4.128.615 4.794 2.67 5.085 1.301.184 2.854-.154 3.45-.75.78-.78.483-1.085-1.056-1.085-3.054 0-3.911-2.017-1.163-2.735 1.987-.52 2.058-.685.526-1.222-2.461-.864-2.185-2.418.569-3.193 1.8-.507 1.471-.673-1.496-.75l-3.805-.1.305 4.75m47.055-4.061c1.339.35 1.75 1.512 1.75 4.943 0 2.736.39 4.245 1 3.868.55-.34 1-2.358 1-4.486 0-2.842.464-3.989 1.75-4.325.963-.251-.275-.457-2.75-.457s-3.713.206-2.75.457m12.836 3.561c-1.918 4.45-1.648 7.239.427 4.401.664-.908 1.783-1.651 2.487-1.651.704 0 1.823.743 2.487 1.651.664.909 1.444 1.246 1.733.75.741-1.27-2.909-9.401-4.22-9.401-.595 0-1.906 1.912-2.914 4.25M184 246c0 4.634.178 5 2.441 5 1.343 0 2.719-.45 3.059-1 .34-.55-.309-1-1.441-1-1.736 0-2.059-.628-2.059-4 0-2.2-.45-4-1-4s-1 2.25-1 5m12-.559c0 2.443.45 4.719 1 5.059.616.381 1-1.323 1-4.441 0-2.782-.45-5.059-1-5.059s-1 1.998-1 4.441m10 .618c0 3.118.384 4.822 1 4.441.55-.34 1-1.724 1-3.075 0-2.427.035-2.418 2.971.809l2.97 3.266.03-5.25c.016-2.887-.421-5.25-.971-5.25s-1.014 1.238-1.032 2.75l-.031 2.75-2.052-2.75c-2.96-3.967-3.885-3.418-3.885 2.309m15.195-.309c.265 4.128.615 4.794 2.67 5.085 1.301.184 2.854-.154 3.45-.75.78-.78.326-1.085-1.615-1.085-3.241 0-3.597-1.953-.504-2.762 1.932-.505 1.983-.649.426-1.195-2.461-.864-2.185-2.418.569-3.193 1.8-.507 1.471-.673-1.496-.75l-3.805-.1.305 4.75m-190.652-2.819c-.74 1.197 1.141 2.382 2.473 1.559 1.119-.691.384-2.49-1.016-2.49-.485 0-1.141.419-1.457.931M157 245.5c0 .825.45 1.5 1 1.5s1-.675 1-1.5-.45-1.5-1-1.5-1 .675-1 1.5m-126.541 1.567c-.92 1.489.147 2.298 2.061 1.564.884-.339 1.327-1.07.984-1.624-.81-1.311-2.215-1.284-3.045.06" fill="#1976D2" fill-rule="evenodd"/><path fill-opacity=".583" d="M88.571 7.571c-4.105 4.106-.526 7.429 8 7.429H103v23.959l-4.25 2.142C82.248 49.419 70.098 63.686 64.346 81.5c-2.059 6.378-2.603 10.129-2.681 18.5-.119 12.833 1.226 18.778 6.958 30.759 6.276 13.117 16.126 23.046 29.389 29.623 20.046 9.942 39.92 9.947 59.945.016 16.852-8.358 29.704-24.1 34.615-42.398 2.642-9.845 2.432-25.516-.468-34.965-5.892-19.192-17.542-33.208-34.854-41.934L153 38.959V15h6.429c8.526 0 12.105-3.323 8-7.429-1.982-1.981-20.312-2.288-22.229-.371-.85.85-1.19 6.617-1.167 19.75l.033 18.55 8.738 4.158c28.455 13.544 40.553 47.357 27.135 75.842-10.816 22.96-36.43 36.455-61.11 32.196-46.485-8.022-64.341-64.073-31.025-97.389 4.756-4.756 8.552-7.39 15.232-10.571l8.898-4.236.033-18.55c.023-13.133-.317-18.9-1.167-19.75-1.917-1.917-20.247-1.61-22.229.371m29.179 57.118c-1.512.395-1.75 1.751-1.75 9.95C116 88.003 116.003 88 104.399 88 90.809 88 91 87.818 91 100.835c0 7.039.415 11.18 1.2 11.965.767.767 4.667 1.2 10.8 1.2 6.133 0 10.033.433 10.8 1.2.767.767 1.2 4.667 1.2 10.8 0 6.133.433 10.033 1.2 10.8 1.646 1.646 21.954 1.646 23.6 0 .767-.767 1.2-4.667 1.2-10.8 0-6.133.433-10.033 1.2-10.8.768-.768 4.684-1.2 10.878-1.2 6.529 0 10.01-.407 10.7-1.25.637-.779.818-5.491.481-12.5L163.717 89h-9.859C140.487 89 140 88.513 140 75.117c0-9.404-.109-9.913-2.25-10.487-2.546-.682-17.33-.638-20 .059M1 206v16h5.93l.285-10.25.285-10.25L12 210c5.908 11.159 7 11.181 12.985.262 2.483-4.532 4.74-8.245 5.015-8.253.275-.007.358 4.488.184 9.989L29.867 222H36.5l-.191-15.75-.191-15.75-3.327-.297c-3.287-.293-3.392-.17-8.784 10.283l-5.457 10.58-5.284-10.533C8.071 190.176 7.924 190 4.491 190H1v16m46 0v16h20v-2.5c0-2.41-.233-2.5-6.5-2.5H54v-8h5c4.889 0 5-.067 5-3 0-1.65-.337-2.947-.75-2.882-.413.066-2.663.066-5 0L54 203v-8h6.5c6.267 0 6.5-.09 6.5-2.5V190H47v16m29-.119V222h8.288C98.07 222 105 216.702 105 206.167c0-5.862-2.451-10.664-6.819-13.364-2.868-1.773-5.509-2.312-12.894-2.635L76 189.761v16.12m38.798.12l-.298 16.002h7l-.298-16.002-.297-16.001h-5.81l-.297 16.001m24.222-14.249c-5.312 2.668-8.02 7.451-8.02 14.161 0 6.913 2.401 11.76 7.062 14.26 4.688 2.514 12.49 2.398 16.835-.252 3.367-2.052 3.38-2.088 1.45-4.019-1.834-1.834-2.136-1.854-5.156-.347-8.98 4.48-16.744-5.784-11.721-15.496 2.322-4.491 9.26-5.939 13.299-2.777.884.693 1.869.451 3.25-.799 2.689-2.434 2.525-2.997-1.42-4.869-4.447-2.11-11.224-2.051-15.579.138M166 206v16h9.5c9.415 0 9.5-.022 9.5-2.45 0-2.281-.396-2.471-5.75-2.75l-5.75-.3-.279-13.25-.279-13.25H166v16m32.563-3.25c-2.705 7.012-5.519 14.213-6.254 16l-1.336 3.25h3.565c3.128 0 3.743-.428 5.026-3.5 1.454-3.478 1.502-3.5 7.805-3.5 6.298 0 6.348.022 7.268 3.25.814 2.854 1.396 3.289 4.778 3.568 2.873.238 3.718-.016 3.325-1-.289-.725-3.113-7.955-6.275-16.068L210.717 190H203.482l-4.919 12.75M231 206.097v16.096l9.421-.346c8.335-.307 9.719-.627 12-2.771 3.542-3.33 3.595-9.132.108-11.875-2.438-1.917-2.445-1.967-.526-3.704 2.644-2.393 3.242-4.723 2.029-7.913-1.43-3.76-6.493-5.584-15.5-5.584H231v16.097m-147.571-9.772c-.28.729-.378 5.566-.219 10.75l.29 9.425 4.787-.065c5.922-.081 8.639-2.467 9.418-8.269.759-5.661-1.242-10.075-5.345-11.789-4.174-1.744-8.273-1.768-8.931-.052M238 199.5c0 4.436.047 4.5 3.345 4.5 3.262 0 6.655-2.425 6.655-4.757 0-2.173-3.207-4.243-6.571-4.243-3.397 0-3.429.042-3.429 4.5m-31.185-1.949c-1.212 2.095-3.986 11.611-3.521 12.076.274.274 2.273.358 4.444.186l3.945-.313-2.159-6.449c-1.188-3.547-2.407-6.022-2.709-5.5M238 212.5v4.5h3.8c4.271 0 6.2-1.4 6.2-4.5s-1.929-4.5-6.2-4.5H238v4.5m-209 33c0 4.464.1 4.621 2.75 4.316 2.489-.286 2.75-.696 2.75-4.316s-.261-4.03-2.75-4.316c-2.65-.305-2.75-.148-2.75 4.316m14.357-.5c.137 4.302.275 4.5 3.143 4.5s3.006-.198 3.143-4.5l.143-4.5-.643 4c-.501 3.119-1.083 4-2.643 4-1.56 0-2.142-.881-2.643-4l-.643-4 .143 4.5m14.936-2.322c-.422 1.1.105 2.174 1.532 3.122 2.782 1.847 2.758 2.949-.075 3.494l-2.25.434 2.281.136c3.235.193 4.141-2.84 1.394-4.664-2.782-1.847-2.758-2.949.075-3.494l2.25-.434-2.281-.136c-1.307-.078-2.557.581-2.926 1.542m12.993 2.822c.008 2.75.202 3.756.432 2.236.229-1.52.223-3.77-.014-5-.237-1.23-.425.014-.418 2.764m8.874.25c.123 3.651.253 3.998.563 1.5.5-4.023 1.225-4.071 3.777-.25 1.1 1.647 2.338 2.996 2.75 2.997.412.002.691-2.134.618-4.747-.122-4.418-.175-4.509-.75-1.301l-.618 3.448-2.685-3.198c-1.477-1.76-2.94-3.199-3.25-3.199-.311 0-.493 2.137-.405 4.75M96 245.5c0 4.275.137 4.493 2.75 4.364 2.358-.117 2.429-.198.5-.57-2.663-.513-3.001-2.951-.5-3.605 1.667-.435 1.667-.463 0-.573-2.546-.169-2.146-2.901.5-3.41 1.929-.372 1.858-.453-.5-.57-2.613-.129-2.75.089-2.75 4.364m13-2.535c0 1.08.9 2.446 2 3.035 2.638 1.412 2.535 2.758-.25 3.294l-2.25.434 2.281.136c3.235.193 4.141-2.84 1.394-4.664-2.782-1.847-2.758-2.949.075-3.494 1.929-.372 1.858-.453-.5-.57-2.113-.104-2.75.319-2.75 1.829m12.667-1.298c-1.442 1.442-.539 3.431 1.996 4.395 2.792 1.061 2.333 2.35-1.163 3.27-1.199.316-.802.455.991.347 3.957-.237 4.667-3.288 1.082-4.651-3.16-1.202-3.228-1.829-.323-2.997 2.16-.868 2.167-.907.167-.968-1.146-.034-2.384.237-2.75.604m20.583.022c1.292.338 1.75 1.486 1.75 4.384 0 2.16.372 3.927.827 3.927.455 0 .618-1.423.362-3.163-.335-2.286.043-3.533 1.365-4.5 1.634-1.195 1.41-1.325-2.113-1.221-2.167.064-3.154.322-2.191.573m13.359 3.331c-2.04 5.097-2.023 5.256.391 3.748 1.599-.999 2.401-.999 4 0 1.1.687 2 1.029 2 .761 0-1.425-3.332-8.529-4-8.529-.431 0-1.507 1.809-2.391 4.02m14.567-3.15c-.797.505-1.195 2.193-1 4.235.3 3.149.577 3.395 3.81 3.395 2.526 0 3.58-.482 3.824-1.75.203-1.056-.275-1.75-1.205-1.75-.998 0-1.327.56-.933 1.588.47 1.224.061 1.51-1.781 1.25-1.915-.271-2.391-.935-2.391-3.338 0-2.616.352-2.995 2.75-2.961 1.512.022 2.75-.315 2.75-.75 0-1.043-4.142-.985-5.824.081m13.999 3.38c-.169 4.587-.081 4.745 2.575 4.614 2.275-.113 2.371-.21.554-.563-1.762-.342-2.27-1.252-2.575-4.613l-.38-4.188-.174 4.75m13.111.25c.008 2.75.202 3.756.432 2.236.229-1.52.223-3.77-.014-5-.237-1.23-.425.014-.418 2.764m8.846.25c.124 4.477.167 4.549.754 1.25l.623-3.5 2.434 3.25c1.338 1.787 2.798 3.25 3.245 3.25.447 0 .74-2.137.652-4.75-.123-3.651-.253-3.998-.563-1.5-.5 4.023-1.225 4.071-3.777.25-1.1-1.647-2.338-2.996-2.75-2.997-.412-.002-.691 2.134-.618 4.747M222 245.5c0 4.275.137 4.493 2.75 4.364 2.358-.117 2.429-.198.5-.57-2.663-.513-3.001-2.951-.5-3.605 1.667-.435 1.667-.463 0-.573-2.546-.169-2.146-2.901.5-3.41 1.929-.372 1.858-.453-.5-.57-2.613-.129-2.75.089-2.75 4.364m-192-2c0 1.03.655 1.52 1.75 1.31 2.108-.406 1.975-2.181-.197-2.633-.906-.189-1.553.362-1.553 1.323m126.71 1.5c-.381 1.457-.03 2 1.29 2s1.671-.543 1.29-2c-.288-1.1-.868-2-1.29-2-.422 0-1.002.9-1.29 2M30 247.5c0 .833.889 1.5 2 1.5s2-.667 2-1.5-.889-1.5-2-1.5-2 .667-2 1.5" fill="#1976D2" fill-rule="evenodd"/></svg>